<svg patternContentUnits="objectBoundingBox" width="400" height="70" viewBox="0 0 400 70" fill="black" xmlns="http://www.w3.org/2000/svg">
<path d="M64.496 17.8194C62.0506 9.50515 54.7844 4.33495 47.8675 5.48776C44.1994 1.15597 38.8196 -1.00994 33.7542 0.457283C31.9726 1.01622 30.3307 1.95945 28.9683 3.21706C27.5709 4.47468 26.488 6.01177 25.7544 7.72353C24.3221 6.64058 22.6453 5.90697 20.8637 5.59256C19.082 5.24322 17.2655 5.31309 15.5188 5.76723C9.75469 7.44405 6.29624 13.6972 6.89012 20.4394C1.30071 23.5835 -1.45907 31.2689 0.776696 38.9893C3.11726 46.9892 10.104 52.1594 16.7764 51.0764C20.3396 56.7706 26.3483 59.8099 32.1123 58.133C34.1036 57.4693 35.9201 56.3165 37.3524 54.7794C38.8196 53.2772 39.8677 51.4257 40.4615 49.3996C42.0336 50.6921 43.8501 51.6004 45.8413 52.0546C47.8326 52.5087 49.8587 52.4388 51.85 51.9498C58.4175 50.0284 62.0506 42.6224 60.7581 34.7972C64.7755 31.0593 66.3824 24.4568 64.4611 17.8543L64.496 17.8194Z" fill="#9EDCFF"/>
<path d="M60.4442 67.8097C64.1122 67.8097 67.0467 64.8404 67.0467 61.2072C67.0467 57.5392 64.0773 54.6047 60.4442 54.6047C56.811 54.6047 53.8417 57.5741 53.8417 61.2072C53.8417 64.8404 56.7761 67.8097 60.4442 67.8097Z" fill="#9EDCFF"/>
<path d="M76.3738 69.8708C78.8192 69.8708 80.7755 67.8796 80.7755 65.4692C80.7755 63.0238 78.7842 61.0675 76.3738 61.0675C73.9284 61.0675 71.9721 63.0587 71.9721 65.4692C71.9372 67.8796 73.9284 69.8708 76.3738 69.8708Z" fill="#9EDCFF"/>
<path d="M89.2636 65.4342C91.2548 65.4342 92.8618 63.8273 92.8618 61.836C92.8618 59.8448 91.2548 58.2379 89.2636 58.2379C87.2724 58.2379 85.6654 59.8448 85.6654 61.836C85.6654 63.8273 87.2724 65.4342 89.2636 65.4342Z" fill="#9EDCFF"/>
<path d="M123.814 52.9289H113.928V25.7853L104.496 52.9289H96.985L87.2385 25.7853V52.9289H77.3522V9.15681H89.055L100.758 39.6191L112.321 9.15681H123.814V52.9289Z" fill="white"/>
<path d="M140.023 22.7801H130.451V52.928H140.023V22.7801Z" fill="white"/>
<path d="M146.276 22.7801H155.848V27.1468C157.524 23.898 161.053 22.0116 165.804 22.0116C169.926 22.0116 172.546 23.4438 174.188 25.4351C176.074 27.7407 176.563 30.6751 176.563 35.0069V52.8931H166.992V37.4523C166.992 33.1904 165.664 30.1511 161.751 30.1511C157.804 30.1511 155.883 33.1554 155.883 37.7667V52.8931H146.311V22.7801H146.276Z" fill="white"/>
<path d="M204.231 48.6661C202.729 51.4258 199.236 53.6616 194.589 53.6616C186.59 53.6616 180.336 46.8495 180.336 37.8366C180.336 28.8236 186.59 22.0116 194.589 22.0116C199.026 22.0116 202.589 24.1425 204.231 27.077V9.12097H213.803V52.8931H204.231V48.6661ZM204.231 37.8715C204.231 33.7493 201.367 30.1861 197.035 30.1861C192.738 30.1861 189.838 33.7493 189.838 37.8715C189.838 42.0636 192.703 45.5569 197.035 45.5569C201.367 45.5569 204.231 42.0636 204.231 37.8715Z" fill="white"/>
<path d="M220.336 9.15584H226.03V47.5481H244.65V52.9279H220.336V9.15584Z" fill="white"/>
<path d="M246.92 38.5352C246.92 30.0812 252.544 23.339 261.942 23.339C271.269 23.339 276.963 30.0812 276.963 38.5352C276.963 46.9193 271.269 53.6615 261.942 53.6615C252.544 53.6965 246.92 46.9193 246.92 38.5352ZM271.479 38.5352C271.479 32.7362 267.985 28.2297 261.907 28.2297C255.828 28.2297 252.265 32.7362 252.265 38.5352C252.265 44.2993 255.828 48.8057 261.907 48.8057C267.985 48.8057 271.479 44.2993 271.479 38.5352Z" fill="white"/>
<path d="M309.802 24.1075V52.1943C309.802 57.7139 308.055 61.8361 304.806 64.3164C302.361 66.1329 299.007 67.0063 294.85 67.0063C290.902 67.0063 287.234 66.0631 284.579 64.1767C282.029 62.3601 280.457 59.6702 280.318 56.5611H286.012C286.396 59.9496 289.261 62.43 294.78 62.43C301.033 62.43 304.422 59.4256 304.422 52.5437V47.8625C302.605 51.4957 298.343 53.6616 294.151 53.6616C285.348 53.6616 279.898 47.0241 279.898 38.5352C279.898 29.9764 285.697 23.339 294.291 23.339C298.728 23.339 302.605 25.5398 304.422 29.2079V24.1075H309.802ZM304.701 38.5352C304.701 32.841 300.998 28.2297 294.955 28.2297C289.191 28.2297 285.313 32.5964 285.313 38.5352C285.313 44.4041 289.261 48.8058 294.955 48.8058C300.998 48.8058 304.701 44.1945 304.701 38.5352Z" fill="white"/>
<path d="M344.91 24.1075V52.1943C344.91 57.7139 343.163 61.8361 339.914 64.3164C337.469 66.1329 334.115 67.0063 329.958 67.0063C326.011 67.0063 322.342 66.0631 319.687 64.1767C317.137 62.3601 315.565 59.6702 315.426 56.5611H321.12C321.504 59.9496 324.369 62.43 329.888 62.43C336.141 62.43 339.53 59.4256 339.53 52.5437V47.8625C337.713 51.4957 333.451 53.6616 329.259 53.6616C320.456 53.6616 315.006 47.0241 315.006 38.5352C315.006 29.9764 320.805 23.339 329.399 23.339C333.836 23.339 337.713 25.5398 339.53 29.2079V24.1075H344.91ZM339.774 38.5352C339.774 32.841 336.071 28.2297 330.028 28.2297C324.264 28.2297 320.386 32.5964 320.386 38.5352C320.386 44.4041 324.334 48.8058 330.028 48.8058C336.071 48.8058 339.774 44.1945 339.774 38.5352Z" fill="white"/>
<path d="M377.643 40.1072H355.32C355.46 45.6617 358.883 48.9105 364.403 48.9105C368.211 48.9105 370.831 47.4084 372.018 44.6486H377.468C376.455 49.9585 371.145 53.6615 364.403 53.6615C355.53 53.6615 349.975 47.7927 349.975 38.4653C349.975 29.3476 355.599 23.339 364.158 23.339C372.298 23.339 377.782 28.9633 377.782 36.8933C377.782 37.9762 377.782 38.8147 377.643 40.1072ZM372.472 35.9151C372.472 30.8497 369.363 27.7406 364.088 27.7406C358.813 27.7406 355.599 31.0593 355.32 35.9151H372.472Z" fill="white"/>
<path d="M383.476 24.1075H388.926V30.6751C390.044 25.7843 393.747 23.6883 397.38 23.6883C398.393 23.6883 399.301 23.7582 400 23.9328V28.9284C399.057 28.7537 398.323 28.7537 397.31 28.7537C391.616 28.7537 388.926 33.9588 388.926 40.3867V52.9629H383.476V24.1075Z" fill="white"/>
<path d="M135.342 7.96803C138.382 7.96803 140.687 10.3086 140.687 13.2081C140.687 16.0727 138.347 18.4482 135.342 18.4482C132.373 18.4482 130.032 16.0727 130.032 13.2081C130.032 10.2737 132.373 7.96803 135.342 7.96803Z" fill="white"/>
</svg>
